<mxfile host="Electron" modified="2025-01-05T21:31:24.731Z" agent="Mozilla/5.0 (X11; Linux x86_64) AppleWebKit/537.36 (KHTML, like Gecko) draw.io/24.1.0 Chrome/120.0.6099.109 Electron/28.1.0 Safari/537.36" etag="yOCGTVSc7BQ0BXbTy_LQ" version="24.1.0" type="device">
  <diagram name="Page-1" id="lzMq8CRsHwPg27goTi5H">
    <mxGraphModel dx="3640" dy="2187" grid="1" gridSize="10" guides="1" tooltips="1" connect="1" arrows="1" fold="1" page="1" pageScale="1" pageWidth="850" pageHeight="1100" math="0" shadow="0">
      <root>
        <mxCell id="0" />
        <mxCell id="1" parent="0" />
        <mxCell id="cRawbpDahzqnOeSRXsp1-1" value="" style="rounded=0;whiteSpace=wrap;html=1;" vertex="1" parent="1">
          <mxGeometry x="80.87" y="80" width="80" height="80" as="geometry" />
        </mxCell>
        <mxCell id="cRawbpDahzqnOeSRXsp1-2" value="" style="rounded=0;whiteSpace=wrap;html=1;" vertex="1" parent="1">
          <mxGeometry x="80.87" y="160" width="80" height="80" as="geometry" />
        </mxCell>
        <mxCell id="cRawbpDahzqnOeSRXsp1-3" value="" style="rounded=0;whiteSpace=wrap;html=1;" vertex="1" parent="1">
          <mxGeometry x="80.87" y="240" width="80" height="80" as="geometry" />
        </mxCell>
        <mxCell id="cRawbpDahzqnOeSRXsp1-4" value="" style="rounded=0;whiteSpace=wrap;html=1;" vertex="1" parent="1">
          <mxGeometry x="80.87" y="320" width="80" height="80" as="geometry" />
        </mxCell>
        <mxCell id="cRawbpDahzqnOeSRXsp1-5" value="" style="rounded=0;whiteSpace=wrap;html=1;fillColor=#cdeb8b;strokeColor=#36393d;" vertex="1" parent="1">
          <mxGeometry x="80.87" y="400" width="80" height="80" as="geometry" />
        </mxCell>
        <mxCell id="cRawbpDahzqnOeSRXsp1-6" value="" style="rounded=0;whiteSpace=wrap;html=1;" vertex="1" parent="1">
          <mxGeometry x="240.87" y="160" width="80" height="80" as="geometry" />
        </mxCell>
        <mxCell id="cRawbpDahzqnOeSRXsp1-7" value="" style="rounded=0;whiteSpace=wrap;html=1;" vertex="1" parent="1">
          <mxGeometry x="240.87" y="240" width="80" height="80" as="geometry" />
        </mxCell>
        <mxCell id="cRawbpDahzqnOeSRXsp1-8" value="" style="rounded=0;whiteSpace=wrap;html=1;" vertex="1" parent="1">
          <mxGeometry x="240.87" y="320" width="80" height="80" as="geometry" />
        </mxCell>
        <mxCell id="cRawbpDahzqnOeSRXsp1-9" value="" style="rounded=0;whiteSpace=wrap;html=1;" vertex="1" parent="1">
          <mxGeometry x="320.87" y="160" width="80" height="80" as="geometry" />
        </mxCell>
        <mxCell id="cRawbpDahzqnOeSRXsp1-10" value="" style="rounded=0;whiteSpace=wrap;html=1;" vertex="1" parent="1">
          <mxGeometry x="400.87" y="160" width="80" height="80" as="geometry" />
        </mxCell>
        <mxCell id="cRawbpDahzqnOeSRXsp1-11" value="" style="rounded=0;whiteSpace=wrap;html=1;fillColor=#cdeb8b;strokeColor=#36393d;" vertex="1" parent="1">
          <mxGeometry x="400.87" y="240" width="80" height="80" as="geometry" />
        </mxCell>
        <mxCell id="cRawbpDahzqnOeSRXsp1-12" value="" style="rounded=0;whiteSpace=wrap;html=1;" vertex="1" parent="1">
          <mxGeometry x="400.87" y="320" width="80" height="80" as="geometry" />
        </mxCell>
        <mxCell id="cRawbpDahzqnOeSRXsp1-13" value="" style="rounded=0;whiteSpace=wrap;html=1;" vertex="1" parent="1">
          <mxGeometry x="320.87" y="320" width="80" height="80" as="geometry" />
        </mxCell>
        <mxCell id="cRawbpDahzqnOeSRXsp1-14" value="" style="rounded=0;whiteSpace=wrap;html=1;" vertex="1" parent="1">
          <mxGeometry x="560.87" y="80" width="80" height="80" as="geometry" />
        </mxCell>
        <mxCell id="cRawbpDahzqnOeSRXsp1-15" value="" style="rounded=0;whiteSpace=wrap;html=1;" vertex="1" parent="1">
          <mxGeometry x="560.87" y="160" width="80" height="80" as="geometry" />
        </mxCell>
        <mxCell id="cRawbpDahzqnOeSRXsp1-16" value="" style="rounded=0;whiteSpace=wrap;html=1;" vertex="1" parent="1">
          <mxGeometry x="560.87" y="240" width="80" height="80" as="geometry" />
        </mxCell>
        <mxCell id="cRawbpDahzqnOeSRXsp1-17" value="" style="rounded=0;whiteSpace=wrap;html=1;" vertex="1" parent="1">
          <mxGeometry x="560.87" y="320" width="80" height="80" as="geometry" />
        </mxCell>
        <mxCell id="cRawbpDahzqnOeSRXsp1-18" value="" style="rounded=0;whiteSpace=wrap;html=1;" vertex="1" parent="1">
          <mxGeometry x="560.87" y="400" width="80" height="80" as="geometry" />
        </mxCell>
        <mxCell id="cRawbpDahzqnOeSRXsp1-19" value="" style="rounded=0;whiteSpace=wrap;html=1;" vertex="1" parent="1">
          <mxGeometry x="640.87" y="80" width="80" height="80" as="geometry" />
        </mxCell>
        <mxCell id="cRawbpDahzqnOeSRXsp1-20" value="" style="rounded=0;whiteSpace=wrap;html=1;" vertex="1" parent="1">
          <mxGeometry x="640.87" y="160" width="80" height="80" as="geometry" />
        </mxCell>
        <mxCell id="cRawbpDahzqnOeSRXsp1-21" value="" style="rounded=0;whiteSpace=wrap;html=1;" vertex="1" parent="1">
          <mxGeometry x="640.87" y="240" width="80" height="80" as="geometry" />
        </mxCell>
        <mxCell id="cRawbpDahzqnOeSRXsp1-22" value="" style="rounded=0;whiteSpace=wrap;html=1;" vertex="1" parent="1">
          <mxGeometry x="640.87" y="320" width="80" height="80" as="geometry" />
        </mxCell>
        <mxCell id="cRawbpDahzqnOeSRXsp1-23" value="" style="rounded=0;whiteSpace=wrap;html=1;" vertex="1" parent="1">
          <mxGeometry x="640.87" y="400" width="80" height="80" as="geometry" />
        </mxCell>
        <mxCell id="cRawbpDahzqnOeSRXsp1-24" value="" style="rounded=0;whiteSpace=wrap;html=1;" vertex="1" parent="1">
          <mxGeometry x="720.87" y="80" width="80" height="80" as="geometry" />
        </mxCell>
        <mxCell id="cRawbpDahzqnOeSRXsp1-25" value="" style="rounded=0;whiteSpace=wrap;html=1;" vertex="1" parent="1">
          <mxGeometry x="720.87" y="160" width="80" height="80" as="geometry" />
        </mxCell>
        <mxCell id="cRawbpDahzqnOeSRXsp1-26" value="" style="rounded=0;whiteSpace=wrap;html=1;" vertex="1" parent="1">
          <mxGeometry x="720.87" y="240" width="80" height="80" as="geometry" />
        </mxCell>
        <mxCell id="cRawbpDahzqnOeSRXsp1-27" value="" style="rounded=0;whiteSpace=wrap;html=1;" vertex="1" parent="1">
          <mxGeometry x="720.87" y="320" width="80" height="80" as="geometry" />
        </mxCell>
        <mxCell id="cRawbpDahzqnOeSRXsp1-28" value="" style="rounded=0;whiteSpace=wrap;html=1;" vertex="1" parent="1">
          <mxGeometry x="720.87" y="400" width="80" height="80" as="geometry" />
        </mxCell>
        <mxCell id="cRawbpDahzqnOeSRXsp1-29" value="" style="rounded=0;whiteSpace=wrap;html=1;" vertex="1" parent="1">
          <mxGeometry x="800.87" y="80" width="80" height="80" as="geometry" />
        </mxCell>
        <mxCell id="cRawbpDahzqnOeSRXsp1-30" value="" style="rounded=0;whiteSpace=wrap;html=1;" vertex="1" parent="1">
          <mxGeometry x="800.87" y="160" width="80" height="80" as="geometry" />
        </mxCell>
        <mxCell id="cRawbpDahzqnOeSRXsp1-31" value="" style="rounded=0;whiteSpace=wrap;html=1;" vertex="1" parent="1">
          <mxGeometry x="800.87" y="240" width="80" height="80" as="geometry" />
        </mxCell>
        <mxCell id="cRawbpDahzqnOeSRXsp1-32" value="" style="rounded=0;whiteSpace=wrap;html=1;" vertex="1" parent="1">
          <mxGeometry x="800.87" y="320" width="80" height="80" as="geometry" />
        </mxCell>
        <mxCell id="cRawbpDahzqnOeSRXsp1-33" value="" style="rounded=0;whiteSpace=wrap;html=1;" vertex="1" parent="1">
          <mxGeometry x="800.87" y="400" width="80" height="80" as="geometry" />
        </mxCell>
        <mxCell id="cRawbpDahzqnOeSRXsp1-34" value="" style="rounded=0;whiteSpace=wrap;html=1;" vertex="1" parent="1">
          <mxGeometry x="880.87" y="80" width="80" height="80" as="geometry" />
        </mxCell>
        <mxCell id="cRawbpDahzqnOeSRXsp1-35" value="" style="rounded=0;whiteSpace=wrap;html=1;fillColor=#cdeb8b;strokeColor=#36393d;" vertex="1" parent="1">
          <mxGeometry x="880.87" y="160" width="80" height="80" as="geometry" />
        </mxCell>
        <mxCell id="cRawbpDahzqnOeSRXsp1-36" value="" style="rounded=0;whiteSpace=wrap;html=1;" vertex="1" parent="1">
          <mxGeometry x="880.87" y="240" width="80" height="80" as="geometry" />
        </mxCell>
        <mxCell id="cRawbpDahzqnOeSRXsp1-37" value="" style="rounded=0;whiteSpace=wrap;html=1;" vertex="1" parent="1">
          <mxGeometry x="880.87" y="320" width="80" height="80" as="geometry" />
        </mxCell>
        <mxCell id="cRawbpDahzqnOeSRXsp1-38" value="" style="rounded=0;whiteSpace=wrap;html=1;" vertex="1" parent="1">
          <mxGeometry x="880.87" y="400" width="80" height="80" as="geometry" />
        </mxCell>
        <mxCell id="cRawbpDahzqnOeSRXsp1-39" value="" style="endArrow=none;html=1;rounded=0;strokeWidth=6;fillColor=#f8cecc;strokeColor=#b85450;entryX=0;entryY=0;entryDx=0;entryDy=0;exitX=0;exitY=1;exitDx=0;exitDy=0;" edge="1" parent="1" source="cRawbpDahzqnOeSRXsp1-5" target="cRawbpDahzqnOeSRXsp1-1">
          <mxGeometry width="50" height="50" relative="1" as="geometry">
            <mxPoint x="350.87" y="470" as="sourcePoint" />
            <mxPoint x="400.87" y="420" as="targetPoint" />
          </mxGeometry>
        </mxCell>
        <mxCell id="cRawbpDahzqnOeSRXsp1-40" value="" style="endArrow=none;html=1;rounded=0;strokeWidth=6;fillColor=#f8cecc;strokeColor=#b85450;entryX=0;entryY=0;entryDx=0;entryDy=0;exitX=0;exitY=1;exitDx=0;exitDy=0;" edge="1" parent="1">
          <mxGeometry width="50" height="50" relative="1" as="geometry">
            <mxPoint x="160.87" y="480" as="sourcePoint" />
            <mxPoint x="160.87" y="80" as="targetPoint" />
          </mxGeometry>
        </mxCell>
        <mxCell id="cRawbpDahzqnOeSRXsp1-41" value="" style="endArrow=none;html=1;rounded=0;strokeWidth=6;fillColor=#d5e8d4;strokeColor=#82b366;entryX=0;entryY=0;entryDx=0;entryDy=0;exitX=0;exitY=1;exitDx=0;exitDy=0;" edge="1" parent="1">
          <mxGeometry width="50" height="50" relative="1" as="geometry">
            <mxPoint x="120.37" y="480" as="sourcePoint" />
            <mxPoint x="120.37" y="80" as="targetPoint" />
          </mxGeometry>
        </mxCell>
        <mxCell id="cRawbpDahzqnOeSRXsp1-42" value="" style="endArrow=none;html=1;rounded=0;strokeWidth=6;fillColor=#f8cecc;strokeColor=#b85450;entryX=0;entryY=0;entryDx=0;entryDy=0;exitX=0;exitY=1;exitDx=0;exitDy=0;" edge="1" parent="1">
          <mxGeometry width="50" height="50" relative="1" as="geometry">
            <mxPoint x="560.87" y="480" as="sourcePoint" />
            <mxPoint x="560.87" y="80" as="targetPoint" />
          </mxGeometry>
        </mxCell>
        <mxCell id="cRawbpDahzqnOeSRXsp1-43" value="" style="endArrow=none;html=1;rounded=0;strokeWidth=6;fillColor=#f8cecc;strokeColor=#b85450;entryX=0;entryY=0;entryDx=0;entryDy=0;exitX=0;exitY=1;exitDx=0;exitDy=0;" edge="1" parent="1">
          <mxGeometry width="50" height="50" relative="1" as="geometry">
            <mxPoint x="959.6899999999999" y="480" as="sourcePoint" />
            <mxPoint x="959.6899999999999" y="80" as="targetPoint" />
          </mxGeometry>
        </mxCell>
        <mxCell id="cRawbpDahzqnOeSRXsp1-44" value="" style="endArrow=none;html=1;rounded=0;strokeWidth=6;fillColor=#f8cecc;strokeColor=#b85450;entryX=0;entryY=1;entryDx=0;entryDy=0;exitX=1;exitY=1;exitDx=0;exitDy=0;" edge="1" parent="1" source="cRawbpDahzqnOeSRXsp1-38" target="cRawbpDahzqnOeSRXsp1-18">
          <mxGeometry width="50" height="50" relative="1" as="geometry">
            <mxPoint x="969.6899999999999" y="490" as="sourcePoint" />
            <mxPoint x="969.6899999999999" y="90" as="targetPoint" />
          </mxGeometry>
        </mxCell>
        <mxCell id="cRawbpDahzqnOeSRXsp1-45" value="" style="endArrow=none;html=1;rounded=0;strokeWidth=6;fillColor=#f8cecc;strokeColor=#b85450;entryX=0;entryY=1;entryDx=0;entryDy=0;exitX=1;exitY=1;exitDx=0;exitDy=0;" edge="1" parent="1">
          <mxGeometry width="50" height="50" relative="1" as="geometry">
            <mxPoint x="960.87" y="80" as="sourcePoint" />
            <mxPoint x="560.87" y="80" as="targetPoint" />
          </mxGeometry>
        </mxCell>
        <mxCell id="cRawbpDahzqnOeSRXsp1-46" value="" style="endArrow=none;html=1;rounded=0;strokeWidth=6;fillColor=#f8cecc;strokeColor=#b85450;entryX=0;entryY=1;entryDx=0;entryDy=0;exitX=1;exitY=1;exitDx=0;exitDy=0;" edge="1" parent="1" source="cRawbpDahzqnOeSRXsp1-12" target="cRawbpDahzqnOeSRXsp1-8">
          <mxGeometry width="50" height="50" relative="1" as="geometry">
            <mxPoint x="980.87" y="500" as="sourcePoint" />
            <mxPoint x="580.87" y="500" as="targetPoint" />
          </mxGeometry>
        </mxCell>
        <mxCell id="cRawbpDahzqnOeSRXsp1-47" value="" style="endArrow=none;html=1;rounded=0;strokeWidth=6;fillColor=#f8cecc;strokeColor=#b85450;entryX=0;entryY=0;entryDx=0;entryDy=0;exitX=1;exitY=0;exitDx=0;exitDy=0;" edge="1" parent="1" source="cRawbpDahzqnOeSRXsp1-10" target="cRawbpDahzqnOeSRXsp1-6">
          <mxGeometry width="50" height="50" relative="1" as="geometry">
            <mxPoint x="490.87" y="410" as="sourcePoint" />
            <mxPoint x="250.87" y="410" as="targetPoint" />
          </mxGeometry>
        </mxCell>
        <mxCell id="cRawbpDahzqnOeSRXsp1-48" value="" style="endArrow=none;html=1;rounded=0;strokeWidth=6;fillColor=#f8cecc;strokeColor=#b85450;entryX=0;entryY=0;entryDx=0;entryDy=0;" edge="1" parent="1" target="cRawbpDahzqnOeSRXsp1-6">
          <mxGeometry width="50" height="50" relative="1" as="geometry">
            <mxPoint x="240.87" y="400" as="sourcePoint" />
            <mxPoint x="260.87" y="420" as="targetPoint" />
          </mxGeometry>
        </mxCell>
        <mxCell id="cRawbpDahzqnOeSRXsp1-49" value="" style="endArrow=none;html=1;rounded=0;strokeWidth=6;fillColor=#f8cecc;strokeColor=#b85450;entryX=1;entryY=0;entryDx=0;entryDy=0;" edge="1" parent="1" target="cRawbpDahzqnOeSRXsp1-10">
          <mxGeometry width="50" height="50" relative="1" as="geometry">
            <mxPoint x="480.87" y="400" as="sourcePoint" />
            <mxPoint x="250.87" y="170" as="targetPoint" />
          </mxGeometry>
        </mxCell>
        <mxCell id="cRawbpDahzqnOeSRXsp1-50" value="" style="endArrow=none;html=1;rounded=0;strokeWidth=6;fillColor=#f8cecc;strokeColor=#b85450;entryX=1;entryY=0;entryDx=0;entryDy=0;exitX=0;exitY=1;exitDx=0;exitDy=0;" edge="1" parent="1" source="cRawbpDahzqnOeSRXsp1-10" target="cRawbpDahzqnOeSRXsp1-7">
          <mxGeometry width="50" height="50" relative="1" as="geometry">
            <mxPoint x="490.87" y="170" as="sourcePoint" />
            <mxPoint x="250.87" y="170" as="targetPoint" />
          </mxGeometry>
        </mxCell>
        <mxCell id="cRawbpDahzqnOeSRXsp1-51" value="" style="endArrow=none;html=1;rounded=0;strokeWidth=6;fillColor=#f8cecc;strokeColor=#b85450;entryX=1;entryY=1;entryDx=0;entryDy=0;exitX=1;exitY=0;exitDx=0;exitDy=0;" edge="1" parent="1" source="cRawbpDahzqnOeSRXsp1-13" target="cRawbpDahzqnOeSRXsp1-7">
          <mxGeometry width="50" height="50" relative="1" as="geometry">
            <mxPoint x="410.87" y="250" as="sourcePoint" />
            <mxPoint x="330.87" y="250" as="targetPoint" />
          </mxGeometry>
        </mxCell>
        <mxCell id="cRawbpDahzqnOeSRXsp1-52" value="" style="endArrow=none;html=1;rounded=0;strokeWidth=6;fillColor=#f8cecc;strokeColor=#b85450;entryX=1;entryY=0;entryDx=0;entryDy=0;exitX=0;exitY=0;exitDx=0;exitDy=0;" edge="1" parent="1" source="cRawbpDahzqnOeSRXsp1-13" target="cRawbpDahzqnOeSRXsp1-7">
          <mxGeometry width="50" height="50" relative="1" as="geometry">
            <mxPoint x="410.87" y="330" as="sourcePoint" />
            <mxPoint x="330.87" y="330" as="targetPoint" />
          </mxGeometry>
        </mxCell>
        <mxCell id="cRawbpDahzqnOeSRXsp1-53" value="" style="endArrow=none;html=1;rounded=0;strokeWidth=6;fillColor=#f8cecc;strokeColor=#b85450;entryX=0;entryY=0;entryDx=0;entryDy=0;exitX=0;exitY=1;exitDx=0;exitDy=0;" edge="1" parent="1" source="cRawbpDahzqnOeSRXsp1-11" target="cRawbpDahzqnOeSRXsp1-11">
          <mxGeometry width="50" height="50" relative="1" as="geometry">
            <mxPoint x="330.87" y="330" as="sourcePoint" />
            <mxPoint x="330.87" y="250" as="targetPoint" />
          </mxGeometry>
        </mxCell>
        <mxCell id="cRawbpDahzqnOeSRXsp1-54" value="" style="endArrow=none;html=1;rounded=1;strokeWidth=6;fillColor=#d5e8d4;strokeColor=#82b366;curved=0;" edge="1" parent="1">
          <mxGeometry width="50" height="50" relative="1" as="geometry">
            <mxPoint x="320.87" y="200" as="sourcePoint" />
            <mxPoint x="380.87" y="200" as="targetPoint" />
            <Array as="points">
              <mxPoint x="440.87" y="200" />
              <mxPoint x="440.87" y="360" />
              <mxPoint x="280.87" y="360" />
              <mxPoint x="280.87" y="200" />
            </Array>
          </mxGeometry>
        </mxCell>
        <mxCell id="cRawbpDahzqnOeSRXsp1-55" value="" style="endArrow=none;html=1;rounded=0;strokeWidth=6;fillColor=#f8cecc;strokeColor=#b85450;" edge="1" parent="1">
          <mxGeometry width="50" height="50" relative="1" as="geometry">
            <mxPoint x="560.87" y="240" as="sourcePoint" />
            <mxPoint x="720.87" y="80" as="targetPoint" />
            <Array as="points">
              <mxPoint x="720.87" y="240" />
            </Array>
          </mxGeometry>
        </mxCell>
        <mxCell id="cRawbpDahzqnOeSRXsp1-56" value="" style="endArrow=none;html=1;rounded=0;strokeWidth=6;fillColor=#f8cecc;strokeColor=#b85450;entryX=1;entryY=1;entryDx=0;entryDy=0;exitX=0;exitY=1;exitDx=0;exitDy=0;" edge="1" parent="1" source="cRawbpDahzqnOeSRXsp1-33" target="cRawbpDahzqnOeSRXsp1-36">
          <mxGeometry width="50" height="50" relative="1" as="geometry">
            <mxPoint x="570.87" y="250" as="sourcePoint" />
            <mxPoint x="730.87" y="90" as="targetPoint" />
            <Array as="points">
              <mxPoint x="800.87" y="320" />
            </Array>
          </mxGeometry>
        </mxCell>
        <mxCell id="cRawbpDahzqnOeSRXsp1-57" value="" style="endArrow=none;html=1;rounded=0;strokeWidth=6;fillColor=#f8cecc;strokeColor=#b85450;entryX=1;entryY=0;entryDx=0;entryDy=0;exitX=0;exitY=1;exitDx=0;exitDy=0;" edge="1" parent="1">
          <mxGeometry width="50" height="50" relative="1" as="geometry">
            <mxPoint x="719.6899999999999" y="318.82" as="sourcePoint" />
            <mxPoint x="639.6899999999999" y="318.82" as="targetPoint" />
          </mxGeometry>
        </mxCell>
        <mxCell id="cRawbpDahzqnOeSRXsp1-58" value="" style="endArrow=none;html=1;rounded=0;strokeWidth=6;fillColor=#f8cecc;strokeColor=#b85450;entryX=1;entryY=1;entryDx=0;entryDy=0;exitX=1;exitY=0;exitDx=0;exitDy=0;" edge="1" parent="1">
          <mxGeometry width="50" height="50" relative="1" as="geometry">
            <mxPoint x="719.6899999999999" y="398.81999999999994" as="sourcePoint" />
            <mxPoint x="639.6899999999999" y="398.81999999999994" as="targetPoint" />
          </mxGeometry>
        </mxCell>
        <mxCell id="cRawbpDahzqnOeSRXsp1-59" value="" style="endArrow=none;html=1;rounded=0;strokeWidth=6;fillColor=#f8cecc;strokeColor=#b85450;entryX=1;entryY=0;entryDx=0;entryDy=0;exitX=0;exitY=0;exitDx=0;exitDy=0;" edge="1" parent="1">
          <mxGeometry width="50" height="50" relative="1" as="geometry">
            <mxPoint x="639.6899999999999" y="398.81999999999994" as="sourcePoint" />
            <mxPoint x="639.6899999999999" y="318.82" as="targetPoint" />
          </mxGeometry>
        </mxCell>
        <mxCell id="cRawbpDahzqnOeSRXsp1-60" value="" style="endArrow=none;html=1;rounded=0;strokeWidth=6;fillColor=#f8cecc;strokeColor=#b85450;entryX=0;entryY=0;entryDx=0;entryDy=0;exitX=0;exitY=1;exitDx=0;exitDy=0;" edge="1" parent="1">
          <mxGeometry width="50" height="50" relative="1" as="geometry">
            <mxPoint x="719.6899999999999" y="398.81999999999994" as="sourcePoint" />
            <mxPoint x="719.6899999999999" y="318.82" as="targetPoint" />
          </mxGeometry>
        </mxCell>
        <mxCell id="cRawbpDahzqnOeSRXsp1-61" value="" style="endArrow=none;html=1;rounded=0;strokeWidth=6;fillColor=#f8cecc;strokeColor=#b85450;entryX=1;entryY=0;entryDx=0;entryDy=0;exitX=0;exitY=1;exitDx=0;exitDy=0;" edge="1" parent="1">
          <mxGeometry width="50" height="50" relative="1" as="geometry">
            <mxPoint x="880.87" y="160" as="sourcePoint" />
            <mxPoint x="800.87" y="160" as="targetPoint" />
          </mxGeometry>
        </mxCell>
        <mxCell id="cRawbpDahzqnOeSRXsp1-62" value="" style="endArrow=none;html=1;rounded=0;strokeWidth=6;fillColor=#f8cecc;strokeColor=#b85450;entryX=1;entryY=1;entryDx=0;entryDy=0;exitX=1;exitY=0;exitDx=0;exitDy=0;" edge="1" parent="1">
          <mxGeometry width="50" height="50" relative="1" as="geometry">
            <mxPoint x="880.87" y="240" as="sourcePoint" />
            <mxPoint x="800.87" y="240" as="targetPoint" />
          </mxGeometry>
        </mxCell>
        <mxCell id="cRawbpDahzqnOeSRXsp1-63" value="" style="endArrow=none;html=1;rounded=0;strokeWidth=6;fillColor=#f8cecc;strokeColor=#b85450;entryX=1;entryY=0;entryDx=0;entryDy=0;exitX=0;exitY=0;exitDx=0;exitDy=0;" edge="1" parent="1">
          <mxGeometry width="50" height="50" relative="1" as="geometry">
            <mxPoint x="800.87" y="240" as="sourcePoint" />
            <mxPoint x="800.87" y="160" as="targetPoint" />
          </mxGeometry>
        </mxCell>
        <mxCell id="cRawbpDahzqnOeSRXsp1-64" value="" style="endArrow=none;html=1;rounded=0;strokeWidth=6;fillColor=#f8cecc;strokeColor=#b85450;entryX=0;entryY=0;entryDx=0;entryDy=0;exitX=0;exitY=1;exitDx=0;exitDy=0;" edge="1" parent="1">
          <mxGeometry width="50" height="50" relative="1" as="geometry">
            <mxPoint x="880.87" y="240" as="sourcePoint" />
            <mxPoint x="880.87" y="160" as="targetPoint" />
          </mxGeometry>
        </mxCell>
        <mxCell id="cRawbpDahzqnOeSRXsp1-65" value="" style="endArrow=none;html=1;rounded=1;strokeWidth=6;fillColor=#d5e8d4;strokeColor=#82b366;curved=0;" edge="1" parent="1">
          <mxGeometry width="50" height="50" relative="1" as="geometry">
            <mxPoint x="730.87" y="440" as="sourcePoint" />
            <mxPoint x="640.87" y="440" as="targetPoint" />
            <Array as="points">
              <mxPoint x="670.87" y="440" />
              <mxPoint x="620.87" y="440" />
              <mxPoint x="600.87" y="440" />
              <mxPoint x="600.87" y="280" />
              <mxPoint x="920.87" y="280" />
              <mxPoint x="920.87" y="120" />
              <mxPoint x="760.87" y="120" />
              <mxPoint x="760.87" y="440" />
            </Array>
          </mxGeometry>
        </mxCell>
        <mxCell id="cRawbpDahzqnOeSRXsp1-66" value="" style="endArrow=classic;startArrow=classic;html=1;rounded=0;strokeWidth=3;" edge="1" parent="1">
          <mxGeometry width="50" height="50" relative="1" as="geometry">
            <mxPoint x="80.87" y="60" as="sourcePoint" />
            <mxPoint x="160.87" y="60" as="targetPoint" />
          </mxGeometry>
        </mxCell>
        <mxCell id="cRawbpDahzqnOeSRXsp1-67" value="&lt;font style=&quot;font-size: 18px;&quot;&gt;40cm&lt;/font&gt;" style="edgeLabel;html=1;align=center;verticalAlign=middle;resizable=0;points=[];" vertex="1" connectable="0" parent="cRawbpDahzqnOeSRXsp1-66">
          <mxGeometry x="-0.006" y="-1" relative="1" as="geometry">
            <mxPoint y="-21" as="offset" />
          </mxGeometry>
        </mxCell>
        <mxCell id="cRawbpDahzqnOeSRXsp1-68" value="" style="endArrow=classic;startArrow=classic;html=1;rounded=0;strokeWidth=3;" edge="1" parent="1">
          <mxGeometry width="50" height="50" relative="1" as="geometry">
            <mxPoint x="60.870000000000005" y="160" as="sourcePoint" />
            <mxPoint x="60.870000000000005" y="80" as="targetPoint" />
          </mxGeometry>
        </mxCell>
        <mxCell id="cRawbpDahzqnOeSRXsp1-69" value="&lt;font style=&quot;font-size: 18px;&quot;&gt;40cm&lt;/font&gt;" style="edgeLabel;html=1;align=center;verticalAlign=middle;resizable=0;points=[];" vertex="1" connectable="0" parent="cRawbpDahzqnOeSRXsp1-68">
          <mxGeometry x="-0.006" y="-1" relative="1" as="geometry">
            <mxPoint x="-31" as="offset" />
          </mxGeometry>
        </mxCell>
        <mxCell id="cRawbpDahzqnOeSRXsp1-70" value="" style="rounded=0;whiteSpace=wrap;html=1;" vertex="1" parent="1">
          <mxGeometry x="80" y="720" width="80" height="80" as="geometry" />
        </mxCell>
        <mxCell id="cRawbpDahzqnOeSRXsp1-71" value="" style="rounded=0;whiteSpace=wrap;html=1;" vertex="1" parent="1">
          <mxGeometry x="80" y="800" width="80" height="80" as="geometry" />
        </mxCell>
        <mxCell id="cRawbpDahzqnOeSRXsp1-72" value="" style="rounded=0;whiteSpace=wrap;html=1;" vertex="1" parent="1">
          <mxGeometry x="80" y="880" width="80" height="80" as="geometry" />
        </mxCell>
        <mxCell id="cRawbpDahzqnOeSRXsp1-73" value="" style="rounded=0;whiteSpace=wrap;html=1;" vertex="1" parent="1">
          <mxGeometry x="80" y="960" width="80" height="80" as="geometry" />
        </mxCell>
        <mxCell id="cRawbpDahzqnOeSRXsp1-74" value="" style="rounded=0;whiteSpace=wrap;html=1;" vertex="1" parent="1">
          <mxGeometry x="80" y="1040" width="80" height="80" as="geometry" />
        </mxCell>
        <mxCell id="cRawbpDahzqnOeSRXsp1-75" value="" style="rounded=0;whiteSpace=wrap;html=1;" vertex="1" parent="1">
          <mxGeometry x="80" y="1120" width="80" height="80" as="geometry" />
        </mxCell>
        <mxCell id="cRawbpDahzqnOeSRXsp1-76" value="" style="rounded=0;whiteSpace=wrap;html=1;" vertex="1" parent="1">
          <mxGeometry x="80" y="1200" width="80" height="80" as="geometry" />
        </mxCell>
        <mxCell id="cRawbpDahzqnOeSRXsp1-77" value="" style="rounded=0;whiteSpace=wrap;html=1;fillColor=#ffcccc;strokeColor=#36393d;" vertex="1" parent="1">
          <mxGeometry x="80" y="1280" width="80" height="80" as="geometry" />
        </mxCell>
        <mxCell id="cRawbpDahzqnOeSRXsp1-78" value="" style="rounded=0;whiteSpace=wrap;html=1;" vertex="1" parent="1">
          <mxGeometry x="160" y="720" width="80" height="80" as="geometry" />
        </mxCell>
        <mxCell id="cRawbpDahzqnOeSRXsp1-79" value="" style="rounded=0;whiteSpace=wrap;html=1;" vertex="1" parent="1">
          <mxGeometry x="160" y="800" width="80" height="80" as="geometry" />
        </mxCell>
        <mxCell id="cRawbpDahzqnOeSRXsp1-80" value="" style="rounded=0;whiteSpace=wrap;html=1;" vertex="1" parent="1">
          <mxGeometry x="160" y="880" width="80" height="80" as="geometry" />
        </mxCell>
        <mxCell id="cRawbpDahzqnOeSRXsp1-81" value="" style="rounded=0;whiteSpace=wrap;html=1;" vertex="1" parent="1">
          <mxGeometry x="160" y="960" width="80" height="80" as="geometry" />
        </mxCell>
        <mxCell id="cRawbpDahzqnOeSRXsp1-82" value="" style="rounded=0;whiteSpace=wrap;html=1;" vertex="1" parent="1">
          <mxGeometry x="160" y="1040" width="80" height="80" as="geometry" />
        </mxCell>
        <mxCell id="cRawbpDahzqnOeSRXsp1-83" value="" style="rounded=0;whiteSpace=wrap;html=1;" vertex="1" parent="1">
          <mxGeometry x="160" y="1120" width="80" height="80" as="geometry" />
        </mxCell>
        <mxCell id="cRawbpDahzqnOeSRXsp1-84" value="" style="rounded=0;whiteSpace=wrap;html=1;" vertex="1" parent="1">
          <mxGeometry x="160" y="1200" width="80" height="80" as="geometry" />
        </mxCell>
        <mxCell id="cRawbpDahzqnOeSRXsp1-85" value="" style="rounded=0;whiteSpace=wrap;html=1;" vertex="1" parent="1">
          <mxGeometry x="160" y="1280" width="80" height="80" as="geometry" />
        </mxCell>
        <mxCell id="cRawbpDahzqnOeSRXsp1-86" value="" style="rounded=0;whiteSpace=wrap;html=1;" vertex="1" parent="1">
          <mxGeometry x="240" y="720" width="80" height="80" as="geometry" />
        </mxCell>
        <mxCell id="cRawbpDahzqnOeSRXsp1-87" value="" style="rounded=0;whiteSpace=wrap;html=1;" vertex="1" parent="1">
          <mxGeometry x="240" y="800" width="80" height="80" as="geometry" />
        </mxCell>
        <mxCell id="cRawbpDahzqnOeSRXsp1-88" value="" style="rounded=0;whiteSpace=wrap;html=1;" vertex="1" parent="1">
          <mxGeometry x="240" y="880" width="80" height="80" as="geometry" />
        </mxCell>
        <mxCell id="cRawbpDahzqnOeSRXsp1-89" value="" style="rounded=0;whiteSpace=wrap;html=1;" vertex="1" parent="1">
          <mxGeometry x="240" y="960" width="80" height="80" as="geometry" />
        </mxCell>
        <mxCell id="cRawbpDahzqnOeSRXsp1-90" value="" style="rounded=0;whiteSpace=wrap;html=1;" vertex="1" parent="1">
          <mxGeometry x="240" y="1040" width="80" height="80" as="geometry" />
        </mxCell>
        <mxCell id="cRawbpDahzqnOeSRXsp1-91" value="" style="rounded=0;whiteSpace=wrap;html=1;" vertex="1" parent="1">
          <mxGeometry x="240" y="1120" width="80" height="80" as="geometry" />
        </mxCell>
        <mxCell id="cRawbpDahzqnOeSRXsp1-92" value="" style="rounded=0;whiteSpace=wrap;html=1;" vertex="1" parent="1">
          <mxGeometry x="240" y="1200" width="80" height="80" as="geometry" />
        </mxCell>
        <mxCell id="cRawbpDahzqnOeSRXsp1-93" value="" style="rounded=0;whiteSpace=wrap;html=1;" vertex="1" parent="1">
          <mxGeometry x="240" y="1280" width="80" height="80" as="geometry" />
        </mxCell>
        <mxCell id="cRawbpDahzqnOeSRXsp1-94" value="" style="rounded=0;whiteSpace=wrap;html=1;" vertex="1" parent="1">
          <mxGeometry x="320" y="720" width="80" height="80" as="geometry" />
        </mxCell>
        <mxCell id="cRawbpDahzqnOeSRXsp1-95" value="" style="rounded=0;whiteSpace=wrap;html=1;" vertex="1" parent="1">
          <mxGeometry x="320" y="800" width="80" height="80" as="geometry" />
        </mxCell>
        <mxCell id="cRawbpDahzqnOeSRXsp1-96" value="" style="rounded=0;whiteSpace=wrap;html=1;" vertex="1" parent="1">
          <mxGeometry x="320" y="880" width="80" height="80" as="geometry" />
        </mxCell>
        <mxCell id="cRawbpDahzqnOeSRXsp1-97" value="" style="rounded=0;whiteSpace=wrap;html=1;" vertex="1" parent="1">
          <mxGeometry x="320" y="960" width="80" height="80" as="geometry" />
        </mxCell>
        <mxCell id="cRawbpDahzqnOeSRXsp1-98" value="" style="rounded=0;whiteSpace=wrap;html=1;fillColor=#cdeb8b;strokeColor=#36393d;" vertex="1" parent="1">
          <mxGeometry x="320" y="1040" width="80" height="80" as="geometry" />
        </mxCell>
        <mxCell id="cRawbpDahzqnOeSRXsp1-99" value="" style="rounded=0;whiteSpace=wrap;html=1;" vertex="1" parent="1">
          <mxGeometry x="320" y="1120" width="80" height="80" as="geometry" />
        </mxCell>
        <mxCell id="cRawbpDahzqnOeSRXsp1-100" value="" style="rounded=0;whiteSpace=wrap;html=1;" vertex="1" parent="1">
          <mxGeometry x="320" y="1200" width="80" height="80" as="geometry" />
        </mxCell>
        <mxCell id="cRawbpDahzqnOeSRXsp1-101" value="" style="rounded=0;whiteSpace=wrap;html=1;" vertex="1" parent="1">
          <mxGeometry x="320" y="1280" width="80" height="80" as="geometry" />
        </mxCell>
        <mxCell id="cRawbpDahzqnOeSRXsp1-102" value="" style="rounded=0;whiteSpace=wrap;html=1;" vertex="1" parent="1">
          <mxGeometry x="400" y="720" width="80" height="80" as="geometry" />
        </mxCell>
        <mxCell id="cRawbpDahzqnOeSRXsp1-103" value="" style="rounded=0;whiteSpace=wrap;html=1;fillColor=#ffcccc;strokeColor=#36393d;" vertex="1" parent="1">
          <mxGeometry x="400" y="800" width="80" height="80" as="geometry" />
        </mxCell>
        <mxCell id="cRawbpDahzqnOeSRXsp1-104" value="" style="rounded=0;whiteSpace=wrap;html=1;" vertex="1" parent="1">
          <mxGeometry x="400" y="880" width="80" height="80" as="geometry" />
        </mxCell>
        <mxCell id="cRawbpDahzqnOeSRXsp1-105" value="" style="rounded=0;whiteSpace=wrap;html=1;" vertex="1" parent="1">
          <mxGeometry x="400" y="960" width="80" height="80" as="geometry" />
        </mxCell>
        <mxCell id="cRawbpDahzqnOeSRXsp1-106" value="" style="rounded=0;whiteSpace=wrap;html=1;" vertex="1" parent="1">
          <mxGeometry x="400" y="1040" width="80" height="80" as="geometry" />
        </mxCell>
        <mxCell id="cRawbpDahzqnOeSRXsp1-107" value="" style="rounded=0;whiteSpace=wrap;html=1;" vertex="1" parent="1">
          <mxGeometry x="400" y="1120" width="80" height="80" as="geometry" />
        </mxCell>
        <mxCell id="cRawbpDahzqnOeSRXsp1-108" value="" style="rounded=0;whiteSpace=wrap;html=1;" vertex="1" parent="1">
          <mxGeometry x="400" y="1200" width="80" height="80" as="geometry" />
        </mxCell>
        <mxCell id="cRawbpDahzqnOeSRXsp1-109" value="" style="rounded=0;whiteSpace=wrap;html=1;" vertex="1" parent="1">
          <mxGeometry x="400" y="1280" width="80" height="80" as="geometry" />
        </mxCell>
        <mxCell id="cRawbpDahzqnOeSRXsp1-110" value="" style="rounded=0;whiteSpace=wrap;html=1;" vertex="1" parent="1">
          <mxGeometry x="480" y="720" width="80" height="80" as="geometry" />
        </mxCell>
        <mxCell id="cRawbpDahzqnOeSRXsp1-111" value="" style="rounded=0;whiteSpace=wrap;html=1;" vertex="1" parent="1">
          <mxGeometry x="480" y="800" width="80" height="80" as="geometry" />
        </mxCell>
        <mxCell id="cRawbpDahzqnOeSRXsp1-112" value="" style="rounded=0;whiteSpace=wrap;html=1;" vertex="1" parent="1">
          <mxGeometry x="480" y="880" width="80" height="80" as="geometry" />
        </mxCell>
        <mxCell id="cRawbpDahzqnOeSRXsp1-113" value="" style="rounded=0;whiteSpace=wrap;html=1;" vertex="1" parent="1">
          <mxGeometry x="480" y="960" width="80" height="80" as="geometry" />
        </mxCell>
        <mxCell id="cRawbpDahzqnOeSRXsp1-114" value="" style="rounded=0;whiteSpace=wrap;html=1;fillColor=#cce5ff;strokeColor=#36393d;" vertex="1" parent="1">
          <mxGeometry x="480" y="1040" width="80" height="80" as="geometry" />
        </mxCell>
        <mxCell id="cRawbpDahzqnOeSRXsp1-115" value="" style="rounded=0;whiteSpace=wrap;html=1;" vertex="1" parent="1">
          <mxGeometry x="480" y="1120" width="80" height="80" as="geometry" />
        </mxCell>
        <mxCell id="cRawbpDahzqnOeSRXsp1-116" value="" style="rounded=0;whiteSpace=wrap;html=1;" vertex="1" parent="1">
          <mxGeometry x="480" y="1200" width="80" height="80" as="geometry" />
        </mxCell>
        <mxCell id="cRawbpDahzqnOeSRXsp1-117" value="" style="rounded=0;whiteSpace=wrap;html=1;" vertex="1" parent="1">
          <mxGeometry x="480" y="1280" width="80" height="80" as="geometry" />
        </mxCell>
        <mxCell id="cRawbpDahzqnOeSRXsp1-118" value="" style="rounded=0;whiteSpace=wrap;html=1;" vertex="1" parent="1">
          <mxGeometry x="560" y="720" width="80" height="80" as="geometry" />
        </mxCell>
        <mxCell id="cRawbpDahzqnOeSRXsp1-119" value="" style="rounded=0;whiteSpace=wrap;html=1;" vertex="1" parent="1">
          <mxGeometry x="560" y="800" width="80" height="80" as="geometry" />
        </mxCell>
        <mxCell id="cRawbpDahzqnOeSRXsp1-120" value="" style="rounded=0;whiteSpace=wrap;html=1;" vertex="1" parent="1">
          <mxGeometry x="560" y="880" width="80" height="80" as="geometry" />
        </mxCell>
        <mxCell id="cRawbpDahzqnOeSRXsp1-121" value="" style="rounded=0;whiteSpace=wrap;html=1;" vertex="1" parent="1">
          <mxGeometry x="560" y="960" width="80" height="80" as="geometry" />
        </mxCell>
        <mxCell id="cRawbpDahzqnOeSRXsp1-122" value="" style="rounded=0;whiteSpace=wrap;html=1;" vertex="1" parent="1">
          <mxGeometry x="560" y="1040" width="80" height="80" as="geometry" />
        </mxCell>
        <mxCell id="cRawbpDahzqnOeSRXsp1-123" value="" style="rounded=0;whiteSpace=wrap;html=1;" vertex="1" parent="1">
          <mxGeometry x="560" y="1120" width="80" height="80" as="geometry" />
        </mxCell>
        <mxCell id="cRawbpDahzqnOeSRXsp1-124" value="" style="rounded=0;whiteSpace=wrap;html=1;fillColor=#ffcccc;strokeColor=#36393d;" vertex="1" parent="1">
          <mxGeometry x="560" y="1200" width="80" height="80" as="geometry" />
        </mxCell>
        <mxCell id="cRawbpDahzqnOeSRXsp1-125" value="" style="rounded=0;whiteSpace=wrap;html=1;" vertex="1" parent="1">
          <mxGeometry x="560" y="1280" width="80" height="80" as="geometry" />
        </mxCell>
        <mxCell id="cRawbpDahzqnOeSRXsp1-126" value="" style="rounded=0;whiteSpace=wrap;html=1;" vertex="1" parent="1">
          <mxGeometry x="640" y="720" width="80" height="80" as="geometry" />
        </mxCell>
        <mxCell id="cRawbpDahzqnOeSRXsp1-127" value="" style="rounded=0;whiteSpace=wrap;html=1;" vertex="1" parent="1">
          <mxGeometry x="640" y="800" width="80" height="80" as="geometry" />
        </mxCell>
        <mxCell id="cRawbpDahzqnOeSRXsp1-128" value="" style="rounded=0;whiteSpace=wrap;html=1;" vertex="1" parent="1">
          <mxGeometry x="640" y="880" width="80" height="80" as="geometry" />
        </mxCell>
        <mxCell id="cRawbpDahzqnOeSRXsp1-129" value="" style="rounded=0;whiteSpace=wrap;html=1;" vertex="1" parent="1">
          <mxGeometry x="640" y="960" width="80" height="80" as="geometry" />
        </mxCell>
        <mxCell id="cRawbpDahzqnOeSRXsp1-130" value="" style="rounded=0;whiteSpace=wrap;html=1;" vertex="1" parent="1">
          <mxGeometry x="640" y="1040" width="80" height="80" as="geometry" />
        </mxCell>
        <mxCell id="cRawbpDahzqnOeSRXsp1-131" value="" style="rounded=0;whiteSpace=wrap;html=1;" vertex="1" parent="1">
          <mxGeometry x="640" y="1120" width="80" height="80" as="geometry" />
        </mxCell>
        <mxCell id="cRawbpDahzqnOeSRXsp1-132" value="" style="rounded=0;whiteSpace=wrap;html=1;" vertex="1" parent="1">
          <mxGeometry x="640" y="1200" width="80" height="80" as="geometry" />
        </mxCell>
        <mxCell id="cRawbpDahzqnOeSRXsp1-133" value="" style="rounded=0;whiteSpace=wrap;html=1;" vertex="1" parent="1">
          <mxGeometry x="640" y="1280" width="80" height="80" as="geometry" />
        </mxCell>
        <mxCell id="cRawbpDahzqnOeSRXsp1-134" value="" style="endArrow=none;html=1;rounded=0;strokeWidth=6;fillColor=#f8cecc;strokeColor=#b85450;entryX=0;entryY=0;entryDx=0;entryDy=0;exitX=0;exitY=1;exitDx=0;exitDy=0;" edge="1" parent="1" source="cRawbpDahzqnOeSRXsp1-77" target="cRawbpDahzqnOeSRXsp1-70">
          <mxGeometry width="50" height="50" relative="1" as="geometry">
            <mxPoint x="8.819999999999936" y="1130" as="sourcePoint" />
            <mxPoint x="8.819999999999936" y="730" as="targetPoint" />
          </mxGeometry>
        </mxCell>
        <mxCell id="cRawbpDahzqnOeSRXsp1-135" value="" style="endArrow=none;html=1;rounded=0;strokeWidth=6;fillColor=#f8cecc;strokeColor=#b85450;exitX=1;exitY=0;exitDx=0;exitDy=0;" edge="1" parent="1" source="cRawbpDahzqnOeSRXsp1-86">
          <mxGeometry width="50" height="50" relative="1" as="geometry">
            <mxPoint x="18.819999999999936" y="1140" as="sourcePoint" />
            <mxPoint x="80" y="720" as="targetPoint" />
          </mxGeometry>
        </mxCell>
        <mxCell id="cRawbpDahzqnOeSRXsp1-136" value="" style="endArrow=none;html=1;rounded=0;strokeWidth=6;fillColor=#f8cecc;strokeColor=#b85450;entryX=1;entryY=0;entryDx=0;entryDy=0;exitX=1;exitY=0;exitDx=0;exitDy=0;" edge="1" parent="1" source="cRawbpDahzqnOeSRXsp1-126" target="cRawbpDahzqnOeSRXsp1-94">
          <mxGeometry width="50" height="50" relative="1" as="geometry">
            <mxPoint x="480" y="620" as="sourcePoint" />
            <mxPoint x="90" y="730" as="targetPoint" />
          </mxGeometry>
        </mxCell>
        <mxCell id="cRawbpDahzqnOeSRXsp1-137" value="" style="endArrow=none;html=1;rounded=0;strokeWidth=6;fillColor=#f8cecc;strokeColor=#b85450;entryX=1;entryY=1;entryDx=0;entryDy=0;" edge="1" parent="1" target="cRawbpDahzqnOeSRXsp1-133">
          <mxGeometry width="50" height="50" relative="1" as="geometry">
            <mxPoint x="720" y="720" as="sourcePoint" />
            <mxPoint x="410" y="730" as="targetPoint" />
          </mxGeometry>
        </mxCell>
        <mxCell id="cRawbpDahzqnOeSRXsp1-138" value="" style="endArrow=none;html=1;rounded=0;strokeWidth=6;fillColor=#f8cecc;strokeColor=#b85450;exitX=0;exitY=1;exitDx=0;exitDy=0;" edge="1" parent="1" source="cRawbpDahzqnOeSRXsp1-77">
          <mxGeometry width="50" height="50" relative="1" as="geometry">
            <mxPoint x="730" y="730" as="sourcePoint" />
            <mxPoint x="720" y="1360" as="targetPoint" />
          </mxGeometry>
        </mxCell>
        <mxCell id="cRawbpDahzqnOeSRXsp1-139" value="" style="endArrow=none;html=1;rounded=0;strokeWidth=6;fillColor=#f8cecc;strokeColor=#b85450;entryX=0;entryY=0;entryDx=0;entryDy=0;" edge="1" parent="1" target="cRawbpDahzqnOeSRXsp1-85">
          <mxGeometry width="50" height="50" relative="1" as="geometry">
            <mxPoint x="160" y="1360" as="sourcePoint" />
            <mxPoint x="90" y="730" as="targetPoint" />
          </mxGeometry>
        </mxCell>
        <mxCell id="cRawbpDahzqnOeSRXsp1-140" value="" style="endArrow=none;html=1;rounded=0;strokeWidth=6;fillColor=#f8cecc;strokeColor=#b85450;entryX=0;entryY=0;entryDx=0;entryDy=0;exitX=0;exitY=0;exitDx=0;exitDy=0;" edge="1" parent="1" source="cRawbpDahzqnOeSRXsp1-92" target="cRawbpDahzqnOeSRXsp1-76">
          <mxGeometry width="50" height="50" relative="1" as="geometry">
            <mxPoint x="100" y="1380" as="sourcePoint" />
            <mxPoint x="100" y="740" as="targetPoint" />
          </mxGeometry>
        </mxCell>
        <mxCell id="cRawbpDahzqnOeSRXsp1-141" value="" style="endArrow=none;html=1;rounded=0;strokeWidth=6;fillColor=#f8cecc;strokeColor=#b85450;entryX=0;entryY=0;entryDx=0;entryDy=0;exitX=1;exitY=1;exitDx=0;exitDy=0;" edge="1" parent="1" source="cRawbpDahzqnOeSRXsp1-84" target="cRawbpDahzqnOeSRXsp1-91">
          <mxGeometry width="50" height="50" relative="1" as="geometry">
            <mxPoint x="250" y="1210" as="sourcePoint" />
            <mxPoint x="90" y="1210" as="targetPoint" />
          </mxGeometry>
        </mxCell>
        <mxCell id="cRawbpDahzqnOeSRXsp1-142" value="" style="endArrow=none;html=1;rounded=0;strokeWidth=6;fillColor=#f8cecc;strokeColor=#b85450;entryX=1;entryY=0;entryDx=0;entryDy=0;exitX=1;exitY=1;exitDx=0;exitDy=0;" edge="1" parent="1" source="cRawbpDahzqnOeSRXsp1-70" target="cRawbpDahzqnOeSRXsp1-79">
          <mxGeometry width="50" height="50" relative="1" as="geometry">
            <mxPoint x="250" y="1290" as="sourcePoint" />
            <mxPoint x="250" y="1130" as="targetPoint" />
          </mxGeometry>
        </mxCell>
        <mxCell id="cRawbpDahzqnOeSRXsp1-143" value="" style="endArrow=none;html=1;rounded=0;strokeWidth=6;fillColor=#f8cecc;strokeColor=#b85450;entryX=0;entryY=0;entryDx=0;entryDy=0;exitX=0;exitY=0;exitDx=0;exitDy=0;" edge="1" parent="1" source="cRawbpDahzqnOeSRXsp1-79" target="cRawbpDahzqnOeSRXsp1-83">
          <mxGeometry width="50" height="50" relative="1" as="geometry">
            <mxPoint x="170" y="810" as="sourcePoint" />
            <mxPoint x="250" y="810" as="targetPoint" />
          </mxGeometry>
        </mxCell>
        <mxCell id="cRawbpDahzqnOeSRXsp1-144" value="" style="endArrow=none;html=1;rounded=0;strokeWidth=6;fillColor=#f8cecc;strokeColor=#b85450;entryX=0;entryY=0;entryDx=0;entryDy=0;" edge="1" parent="1" target="cRawbpDahzqnOeSRXsp1-98">
          <mxGeometry width="50" height="50" relative="1" as="geometry">
            <mxPoint x="160" y="1040" as="sourcePoint" />
            <mxPoint x="170" y="1130" as="targetPoint" />
          </mxGeometry>
        </mxCell>
        <mxCell id="cRawbpDahzqnOeSRXsp1-145" value="" style="endArrow=none;html=1;rounded=0;strokeWidth=6;fillColor=#f8cecc;strokeColor=#b85450;entryX=0;entryY=0;entryDx=0;entryDy=0;exitX=1;exitY=0;exitDx=0;exitDy=0;" edge="1" parent="1" source="cRawbpDahzqnOeSRXsp1-81" target="cRawbpDahzqnOeSRXsp1-88">
          <mxGeometry width="50" height="50" relative="1" as="geometry">
            <mxPoint x="170" y="1050" as="sourcePoint" />
            <mxPoint x="330" y="1050" as="targetPoint" />
          </mxGeometry>
        </mxCell>
        <mxCell id="cRawbpDahzqnOeSRXsp1-146" value="" style="endArrow=none;html=1;rounded=0;strokeWidth=6;fillColor=#f8cecc;strokeColor=#b85450;entryX=0;entryY=0;entryDx=0;entryDy=0;exitX=0;exitY=0;exitDx=0;exitDy=0;" edge="1" parent="1" source="cRawbpDahzqnOeSRXsp1-96" target="cRawbpDahzqnOeSRXsp1-88">
          <mxGeometry width="50" height="50" relative="1" as="geometry">
            <mxPoint x="250" y="970" as="sourcePoint" />
            <mxPoint x="250" y="890" as="targetPoint" />
          </mxGeometry>
        </mxCell>
        <mxCell id="cRawbpDahzqnOeSRXsp1-147" value="" style="endArrow=none;html=1;rounded=0;strokeWidth=6;fillColor=#f8cecc;strokeColor=#b85450;entryX=0;entryY=0;entryDx=0;entryDy=0;exitX=0;exitY=1;exitDx=0;exitDy=0;" edge="1" parent="1" source="cRawbpDahzqnOeSRXsp1-95" target="cRawbpDahzqnOeSRXsp1-94">
          <mxGeometry width="50" height="50" relative="1" as="geometry">
            <mxPoint x="330" y="890" as="sourcePoint" />
            <mxPoint x="250" y="890" as="targetPoint" />
          </mxGeometry>
        </mxCell>
        <mxCell id="cRawbpDahzqnOeSRXsp1-148" value="" style="endArrow=none;html=1;rounded=0;strokeWidth=6;fillColor=#f8cecc;strokeColor=#b85450;entryX=0;entryY=0;entryDx=0;entryDy=0;exitX=0;exitY=0;exitDx=0;exitDy=0;" edge="1" parent="1" source="cRawbpDahzqnOeSRXsp1-103" target="cRawbpDahzqnOeSRXsp1-104">
          <mxGeometry width="50" height="50" relative="1" as="geometry">
            <mxPoint x="330" y="890" as="sourcePoint" />
            <mxPoint x="330" y="730" as="targetPoint" />
          </mxGeometry>
        </mxCell>
        <mxCell id="cRawbpDahzqnOeSRXsp1-149" value="" style="endArrow=none;html=1;rounded=0;strokeWidth=6;fillColor=#f8cecc;strokeColor=#b85450;entryX=1;entryY=0;entryDx=0;entryDy=0;exitX=0;exitY=0;exitDx=0;exitDy=0;" edge="1" parent="1" source="cRawbpDahzqnOeSRXsp1-103" target="cRawbpDahzqnOeSRXsp1-119">
          <mxGeometry width="50" height="50" relative="1" as="geometry">
            <mxPoint x="410" y="810" as="sourcePoint" />
            <mxPoint x="410" y="890" as="targetPoint" />
          </mxGeometry>
        </mxCell>
        <mxCell id="cRawbpDahzqnOeSRXsp1-150" value="" style="endArrow=none;html=1;rounded=0;strokeWidth=6;fillColor=#f8cecc;strokeColor=#b85450;exitX=0;exitY=0;exitDx=0;exitDy=0;" edge="1" parent="1" source="cRawbpDahzqnOeSRXsp1-128">
          <mxGeometry width="50" height="50" relative="1" as="geometry">
            <mxPoint x="410" y="810" as="sourcePoint" />
            <mxPoint x="640" y="800" as="targetPoint" />
          </mxGeometry>
        </mxCell>
        <mxCell id="cRawbpDahzqnOeSRXsp1-151" value="" style="endArrow=none;html=1;rounded=0;strokeWidth=6;fillColor=#f8cecc;strokeColor=#b85450;exitX=0;exitY=0;exitDx=0;exitDy=0;entryX=0;entryY=0;entryDx=0;entryDy=0;" edge="1" parent="1" source="cRawbpDahzqnOeSRXsp1-116" target="cRawbpDahzqnOeSRXsp1-111">
          <mxGeometry width="50" height="50" relative="1" as="geometry">
            <mxPoint x="650" y="890" as="sourcePoint" />
            <mxPoint x="650" y="810" as="targetPoint" />
          </mxGeometry>
        </mxCell>
        <mxCell id="cRawbpDahzqnOeSRXsp1-152" value="" style="endArrow=none;html=1;rounded=0;strokeWidth=6;fillColor=#f8cecc;strokeColor=#b85450;exitX=0;exitY=0;exitDx=0;exitDy=0;entryX=0;entryY=0;entryDx=0;entryDy=0;" edge="1" parent="1" source="cRawbpDahzqnOeSRXsp1-99" target="cRawbpDahzqnOeSRXsp1-107">
          <mxGeometry width="50" height="50" relative="1" as="geometry">
            <mxPoint x="490" y="1210" as="sourcePoint" />
            <mxPoint x="490" y="810" as="targetPoint" />
          </mxGeometry>
        </mxCell>
        <mxCell id="cRawbpDahzqnOeSRXsp1-153" value="" style="endArrow=none;html=1;rounded=0;strokeWidth=6;fillColor=#f8cecc;strokeColor=#b85450;exitX=0;exitY=1;exitDx=0;exitDy=0;entryX=1;entryY=1;entryDx=0;entryDy=0;" edge="1" parent="1" source="cRawbpDahzqnOeSRXsp1-101" target="cRawbpDahzqnOeSRXsp1-88">
          <mxGeometry width="50" height="50" relative="1" as="geometry">
            <mxPoint x="330" y="1130" as="sourcePoint" />
            <mxPoint x="410" y="1130" as="targetPoint" />
          </mxGeometry>
        </mxCell>
        <mxCell id="cRawbpDahzqnOeSRXsp1-154" value="" style="endArrow=none;html=1;rounded=0;strokeWidth=6;fillColor=#f8cecc;strokeColor=#b85450;entryX=1;entryY=1;entryDx=0;entryDy=0;" edge="1" parent="1" target="cRawbpDahzqnOeSRXsp1-88">
          <mxGeometry width="50" height="50" relative="1" as="geometry">
            <mxPoint x="480" y="960" as="sourcePoint" />
            <mxPoint x="330" y="970" as="targetPoint" />
          </mxGeometry>
        </mxCell>
        <mxCell id="cRawbpDahzqnOeSRXsp1-155" value="" style="endArrow=none;html=1;rounded=0;strokeWidth=6;fillColor=#f8cecc;strokeColor=#b85450;entryX=1;entryY=1;entryDx=0;entryDy=0;exitX=0;exitY=1;exitDx=0;exitDy=0;" edge="1" parent="1" source="cRawbpDahzqnOeSRXsp1-105" target="cRawbpDahzqnOeSRXsp1-98">
          <mxGeometry width="50" height="50" relative="1" as="geometry">
            <mxPoint x="490" y="970" as="sourcePoint" />
            <mxPoint x="330" y="970" as="targetPoint" />
          </mxGeometry>
        </mxCell>
        <mxCell id="cRawbpDahzqnOeSRXsp1-156" value="" style="endArrow=none;html=1;rounded=0;strokeWidth=6;fillColor=#f8cecc;strokeColor=#b85450;exitX=0;exitY=0;exitDx=0;exitDy=0;entryX=0;entryY=0;entryDx=0;entryDy=0;" edge="1" parent="1" source="cRawbpDahzqnOeSRXsp1-108" target="cRawbpDahzqnOeSRXsp1-116">
          <mxGeometry width="50" height="50" relative="1" as="geometry">
            <mxPoint x="490" y="1210" as="sourcePoint" />
            <mxPoint x="490" y="810" as="targetPoint" />
          </mxGeometry>
        </mxCell>
        <mxCell id="cRawbpDahzqnOeSRXsp1-157" value="" style="endArrow=none;html=1;rounded=0;strokeWidth=6;fillColor=#f8cecc;strokeColor=#b85450;exitX=0;exitY=0;exitDx=0;exitDy=0;entryX=1;entryY=0;entryDx=0;entryDy=0;" edge="1" parent="1" source="cRawbpDahzqnOeSRXsp1-108" target="cRawbpDahzqnOeSRXsp1-109">
          <mxGeometry width="50" height="50" relative="1" as="geometry">
            <mxPoint x="410" y="1210" as="sourcePoint" />
            <mxPoint x="490" y="1210" as="targetPoint" />
            <Array as="points">
              <mxPoint x="400" y="1280" />
            </Array>
          </mxGeometry>
        </mxCell>
        <mxCell id="cRawbpDahzqnOeSRXsp1-158" value="" style="endArrow=none;html=1;rounded=0;strokeWidth=6;fillColor=#f8cecc;strokeColor=#b85450;exitX=1;exitY=1;exitDx=0;exitDy=0;" edge="1" parent="1" source="cRawbpDahzqnOeSRXsp1-124">
          <mxGeometry width="50" height="50" relative="1" as="geometry">
            <mxPoint x="410" y="1210" as="sourcePoint" />
            <mxPoint x="560" y="1360" as="targetPoint" />
            <Array as="points">
              <mxPoint x="640" y="1200" />
              <mxPoint x="560" y="1200" />
            </Array>
          </mxGeometry>
        </mxCell>
        <mxCell id="cRawbpDahzqnOeSRXsp1-159" value="" style="endArrow=none;html=1;rounded=0;strokeWidth=6;fillColor=#f8cecc;strokeColor=#b85450;entryX=0;entryY=0;entryDx=0;entryDy=0;" edge="1" parent="1" target="cRawbpDahzqnOeSRXsp1-120">
          <mxGeometry width="50" height="50" relative="1" as="geometry">
            <mxPoint x="640" y="1200" as="sourcePoint" />
            <mxPoint x="650" y="810" as="targetPoint" />
            <Array as="points">
              <mxPoint x="640" y="960" />
              <mxPoint x="560" y="960" />
            </Array>
          </mxGeometry>
        </mxCell>
        <mxCell id="cRawbpDahzqnOeSRXsp1-160" value="" style="endArrow=none;html=1;rounded=0;strokeWidth=6;fillColor=#f8cecc;strokeColor=#b85450;entryX=0;entryY=0;entryDx=0;entryDy=0;exitX=1;exitY=0;exitDx=0;exitDy=0;" edge="1" parent="1" source="cRawbpDahzqnOeSRXsp1-114" target="cRawbpDahzqnOeSRXsp1-115">
          <mxGeometry width="50" height="50" relative="1" as="geometry">
            <mxPoint x="490" y="970" as="sourcePoint" />
            <mxPoint x="330" y="970" as="targetPoint" />
            <Array as="points">
              <mxPoint x="560" y="1120" />
            </Array>
          </mxGeometry>
        </mxCell>
        <mxCell id="cRawbpDahzqnOeSRXsp1-161" value="" style="endArrow=none;html=1;rounded=1;strokeWidth=6;fillColor=#60a917;strokeColor=#2D7600;curved=0;" edge="1" parent="1">
          <mxGeometry width="50" height="50" relative="1" as="geometry">
            <mxPoint x="359.4100000000001" y="1080" as="sourcePoint" />
            <mxPoint x="359.4100000000001" y="680" as="targetPoint" />
            <Array as="points">
              <mxPoint x="359" y="1000" />
              <mxPoint x="440" y="1000" />
              <mxPoint x="440" y="1160" />
              <mxPoint x="359" y="1160" />
              <mxPoint x="359" y="1320" />
              <mxPoint x="520" y="1320" />
              <mxPoint x="520" y="1160" />
              <mxPoint x="600" y="1160" />
              <mxPoint x="600" y="1000" />
              <mxPoint x="520" y="1000" />
              <mxPoint x="520" y="840" />
              <mxPoint x="600" y="840" />
              <mxPoint x="600" y="920" />
              <mxPoint x="680" y="920" />
              <mxPoint x="680" y="760" />
              <mxPoint x="359" y="760" />
            </Array>
          </mxGeometry>
        </mxCell>
        <mxCell id="cRawbpDahzqnOeSRXsp1-162" value="" style="endArrow=classic;startArrow=classic;html=1;rounded=0;strokeWidth=3;" edge="1" parent="1">
          <mxGeometry width="50" height="50" relative="1" as="geometry">
            <mxPoint x="80" y="700" as="sourcePoint" />
            <mxPoint x="160" y="700" as="targetPoint" />
          </mxGeometry>
        </mxCell>
        <mxCell id="cRawbpDahzqnOeSRXsp1-163" value="&lt;font style=&quot;font-size: 18px;&quot;&gt;40cm&lt;/font&gt;" style="edgeLabel;html=1;align=center;verticalAlign=middle;resizable=0;points=[];" vertex="1" connectable="0" parent="cRawbpDahzqnOeSRXsp1-162">
          <mxGeometry x="-0.006" y="-1" relative="1" as="geometry">
            <mxPoint y="-21" as="offset" />
          </mxGeometry>
        </mxCell>
        <mxCell id="cRawbpDahzqnOeSRXsp1-164" value="" style="endArrow=classic;startArrow=classic;html=1;rounded=0;strokeWidth=3;" edge="1" parent="1">
          <mxGeometry width="50" height="50" relative="1" as="geometry">
            <mxPoint x="60" y="800" as="sourcePoint" />
            <mxPoint x="60" y="720" as="targetPoint" />
          </mxGeometry>
        </mxCell>
        <mxCell id="cRawbpDahzqnOeSRXsp1-165" value="&lt;font style=&quot;font-size: 18px;&quot;&gt;40cm&lt;/font&gt;" style="edgeLabel;html=1;align=center;verticalAlign=middle;resizable=0;points=[];" vertex="1" connectable="0" parent="cRawbpDahzqnOeSRXsp1-164">
          <mxGeometry x="-0.006" y="-1" relative="1" as="geometry">
            <mxPoint x="-31" as="offset" />
          </mxGeometry>
        </mxCell>
      </root>
    </mxGraphModel>
  </diagram>
</mxfile>
